<?xml version="1.0" encoding="utf-8"?>
<!-- Generator: Adobe Illustrator 16.0.0, SVG Export Plug-In . SVG Version: 6.00 Build 0)  -->
<!DOCTYPE svg PUBLIC "-//W3C//DTD SVG 1.1//EN" "http://www.w3.org/Graphics/SVG/1.1/DTD/svg11.dtd">
<svg version="1.1" id="Layer_1" xmlns="http://www.w3.org/2000/svg" xmlns:xlink="http://www.w3.org/1999/xlink" x="0px" y="0px"
	 width="70px" height="70px" viewBox="0 0 70 70" enable-background="new 0 0 70 70" xml:space="preserve">
<g>
	<path d="M59.226,29.622h-0.672v-6.848C58.554,10.216,48.309,0,35.716,0C23.077,0,12.792,10.216,12.792,22.774v6.848h-2.018
		c-3.341,0-6.058,2.717-6.058,6.058v28.263c0,3.341,2.717,6.058,6.058,6.058h48.451c3.341,0,6.058-2.717,6.058-6.058V35.68
		C65.283,32.339,62.566,29.622,59.226,29.622z M16.83,22.774c0-10.333,8.472-18.737,18.886-18.737
		c10.366,0,18.801,8.404,18.801,18.737v6.848H16.83V22.774z M61.246,63.942c0,1.113-0.906,2.021-2.021,2.021H10.774
		c-1.114,0-2.021-0.907-2.021-2.021V35.68c0-1.113,0.907-2.021,2.021-2.021h2.018h4.037h37.687h4.037h0.672
		c1.114,0,2.021,0.907,2.021,2.021V63.942z"/>
	<path d="M36.347,39.045H35c-3.341,0-6.058,2.715-6.058,6.057v8.074c0,3.341,2.717,6.058,6.058,6.058h1.347
		c3.34,0,6.056-2.717,6.056-6.058v-8.074C42.402,41.76,39.687,39.045,36.347,39.045z M38.365,53.176
		c0,1.113-0.905,2.021-2.019,2.021H35c-1.113,0-2.019-0.907-2.019-2.021v-8.074c0-1.115,0.905-2.02,2.019-2.02h1.347
		c1.113,0,2.019,0.904,2.019,2.02V53.176z"/>
</g>
</svg>
