<?xml version="1.0" encoding="utf-8"?>
<!-- Generator: Adobe Illustrator 16.0.0, SVG Export Plug-In . SVG Version: 6.00 Build 0)  -->
<!DOCTYPE svg PUBLIC "-//W3C//DTD SVG 1.1//EN" "http://www.w3.org/Graphics/SVG/1.1/DTD/svg11.dtd">
<svg version="1.1" id="Layer_1" xmlns="http://www.w3.org/2000/svg" xmlns:xlink="http://www.w3.org/1999/xlink" x="0px" y="0px"
	 width="70px" height="70px" viewBox="0 0 70 70" enable-background="new 0 0 70 70" xml:space="preserve">
<g>
	<path d="M38.095,0C24.005,0,12.043,9.11,7.868,21.68c-1.254,0.416-2.479,1.225-3.7,2.517c-5.693,6.026-7.348,18.337,6.815,33.28
		l3.515,3.244C22.005,66.791,29.504,70,36.186,70c4.931,0,9.278-1.736,12.255-4.881c0.837-0.887,1.455-1.773,1.874-2.66
		c0.351-0.732,0.553-1.465,0.617-2.189c0.962-0.422,1.897-0.891,2.813-1.404c9.646-5.412,16.185-15.648,16.185-27.384
		C69.929,14.123,55.646,0,38.095,0L38.095,0z M14.192,23.098c-0.71-0.548-1.462-0.957-2.249-1.223
		c3.002-7.913,9.548-14.12,17.741-16.676c2.641-0.824,5.452-1.27,8.368-1.27c15.389,0,27.91,12.383,27.91,27.601
		c0,0.432-0.049,0.85-0.065,1.275c-0.491,10.495-6.911,19.46-16.032,23.696c-0.422-0.709-0.981-1.369-1.642-2
		c8.936-3.887,15.198-12.717,15.198-22.972c0-2.703-0.448-5.304-1.251-7.744C59.294,15.057,51.708,8.431,42.388,6.833
		c-1.412-0.238-2.853-0.392-4.336-0.392C27.058,6.441,17.706,13.407,14.192,23.098L14.192,23.098z M28.557,52.539
		c-0.139,0-0.269-0.018-0.379-0.064c-0.662-0.289-3.012-1.898-5.43-3.963c-2.349-2.346-4.13-4.553-4.46-5.182
		c-0.323-0.615,0.12-1.684,0.335-2.035c0.194-0.271,4.742-6.756,1.148-11.708l-0.156-0.214c-1.337-1.842-2.644-3.619-4.032-5.028
		c3.071-9.377,11.978-16.182,22.468-16.182c4.31,0,8.345,1.167,11.823,3.169c3.025,1.737,5.627,4.107,7.609,6.941
		c2.639,3.771,4.194,8.335,4.194,13.257c0,9.847-6.197,18.271-14.93,21.71c-1.364-1.039-2.947-2.021-4.577-3.02l-0.23-0.143
		c-1.17-0.717-2.496-1.084-3.937-1.084c-4.014,0-7.647,2.887-7.728,2.957C30.05,52.109,29.201,52.539,28.557,52.539L28.557,52.539z
		 M36.167,66.07c-5.774,0-12.405-2.895-19.095-8.297l-3.298-3.043C1.598,41.875,2.544,31.667,7.07,26.781
		c0.023-0.024,0.044-0.055,0.069-0.081c0.703-0.746,1.359-1.225,1.975-1.489c0.33-0.142,0.654-0.237,0.953-0.237
		c0.281,0,0.57,0.069,0.861,0.182c0.718,0.275,1.465,0.872,2.224,1.652c0.25,0.255,0.502,0.53,0.751,0.823
		c0.248,0.287,0.496,0.585,0.743,0.898c0.712,0.896,1.431,1.876,2.141,2.853l0.155,0.216c2,2.757-0.709,7.033-1.147,7.688
		c-0.031,0.049-0.054,0.08-0.06,0.088c-0.062,0.094-0.274,0.451-0.49,0.945c-0.154,0.361-0.3,0.789-0.412,1.279
		c-0.214,0.986-0.242,2.168,0.365,3.324c0.604,1.143,2.785,3.729,5.176,6.102c2.452,2.104,5.205,4.082,6.407,4.605
		c0.566,0.244,1.182,0.369,1.825,0.369c0.805,0,1.545-0.199,2.162-0.441c0.488-0.191,0.9-0.408,1.186-0.582
		c0.229-0.139,0.383-0.25,0.446-0.295c0.004-0.006,0.188-0.148,0.495-0.357c0.935-0.633,3.036-1.883,5.11-1.883
		c0.795,0,1.481,0.188,2.101,0.566l0.232,0.143c0.717,0.441,1.433,0.883,2.129,1.328c0.345,0.223,0.679,0.445,1.007,0.67
		c0.319,0.215,0.625,0.432,0.919,0.648c0.906,0.674,1.674,1.346,2.18,2.012c0.358,0.473,0.604,0.943,0.668,1.41
		c0.008,0.061-0.01,0.127-0.01,0.189c0.021,0.594-0.219,1.262-0.744,2.002c-0.216,0.303-0.469,0.619-0.776,0.943
		C44.396,63.74,41.411,66.07,36.167,66.07L36.167,66.07z"/>
	<path d="M29.011,25.039c0.688-0.332,1.394-0.497,2.123-0.497c0.695,0,1.255,0.182,1.669,0.55c0.417,0.363,0.625,0.919,0.625,1.665
		c0,0.503-0.094,0.986-0.281,1.453c-0.189,0.47-0.499,0.972-0.931,1.521c-0.428,0.548-1.343,1.532-2.742,2.95l-4.727,4.725v2.738
		h13.164v-3.311h-8.205v-0.178l2.42-2.257c1.614-1.459,2.742-2.584,3.382-3.376c0.64-0.789,1.112-1.561,1.416-2.311
		c0.304-0.752,0.459-1.555,0.459-2.414c0-0.982-0.251-1.86-0.748-2.623c-0.499-0.764-1.199-1.358-2.101-1.782
		c-0.9-0.428-1.939-0.638-3.117-0.638c-0.891,0-1.697,0.086-2.42,0.261c-0.72,0.176-1.386,0.422-1.995,0.744
		c-0.611,0.323-1.377,0.874-2.305,1.656l2.162,2.536C27.61,25.842,28.323,25.369,29.011,25.039z"/>
	<path d="M47.232,40.145h3.887v-3.859h2.27v-3.058h-2.27V21.522h-3.667l-8.257,12.024v2.738h8.037V40.145z M42.701,33.228
		l3.449-5.158c0.446-0.662,0.829-1.341,1.147-2.038h0.104c-0.026,0.161-0.06,0.744-0.104,1.746
		c-0.043,1.001-0.065,1.769-0.065,2.294v3.156H42.701z"/>
</g>
</svg>
