<?xml version="1.0" encoding="utf-8"?>
<!-- Generator: Adobe Illustrator 16.0.0, SVG Export Plug-In . SVG Version: 6.00 Build 0)  -->
<!DOCTYPE svg PUBLIC "-//W3C//DTD SVG 1.1//EN" "http://www.w3.org/Graphics/SVG/1.1/DTD/svg11.dtd">
<svg version="1.1" id="Layer_1" xmlns="http://www.w3.org/2000/svg" xmlns:xlink="http://www.w3.org/1999/xlink" x="0px" y="0px"
	 width="70px" height="70px" viewBox="0 0 70 70" enable-background="new 0 0 70 70" xml:space="preserve">
<g>
	<path d="M13.455,23.24h7.557c1.618,0,3.258,1.304,4.543,2.69v-8.725c0-2.72,2.243-4.934,5-4.934H65c2.757,0,5,2.214,5,4.934v29.614
		c0,2.722-2.243,4.938-5,4.938h-1.666v-3.29H65c0.92,0,1.665-0.74,1.665-1.648V17.205c0-0.907-0.745-1.643-1.665-1.643H30.556
		c-0.919,0-1.667,0.736-1.667,1.643v29.614c0,0.908,0.748,1.648,1.667,1.648h12.778v3.29H30.556c-2.758,0-5-2.217-5-4.938V30.194
		l-0.585,0.373c-1.326-2.026-3.251-3.99-3.958-4.036h-7.557c-3.739,0-10.121,9.171-10.121,11.158v9.683h2.222v3.29h-2.87
		C1.028,50.661,0,49.66,0,48.058V37.688C0,34.354,7.472,23.24,13.455,23.24z"/>
	<path d="M53.189,42.458c4.455,0,8.082,3.578,8.082,7.979c0,4.402-3.627,7.981-8.082,7.981c-4.459,0-8.085-3.579-8.085-7.981
		C45.104,46.036,48.73,42.458,53.189,42.458z M53.189,55.128c2.619,0,4.751-2.104,4.751-4.69c0-2.586-2.132-4.688-4.751-4.688
		c-2.62,0-4.751,2.103-4.751,4.688C48.438,53.024,50.569,55.128,53.189,55.128z"/>
	<path d="M15.307,42.458c4.458,0,8.083,3.578,8.083,7.979c0,4.402-3.625,7.981-8.083,7.981c-4.457,0-8.084-3.579-8.084-7.981
		C7.222,46.036,10.85,42.458,15.307,42.458z M15.307,55.128c2.62,0,4.75-2.104,4.75-4.69c0-2.586-2.13-4.688-4.75-4.688
		s-4.751,2.103-4.751,4.688C10.555,53.024,12.687,55.128,15.307,55.128z"/>
	<path d="M14.348,29.82H20v8.754L6.667,38.837v-1.118C6.667,35.687,10.628,29.82,14.348,29.82z M17.777,36.424v-4.41h-3.429
		c-1.777,0-4.006,2.843-4.923,4.577L17.777,36.424z"/>
</g>
</svg>
