<?xml version="1.0" encoding="utf-8"?>
<!-- Generator: Adobe Illustrator 16.0.0, SVG Export Plug-In . SVG Version: 6.00 Build 0)  -->
<!DOCTYPE svg PUBLIC "-//W3C//DTD SVG 1.1//EN" "http://www.w3.org/Graphics/SVG/1.1/DTD/svg11.dtd">
<svg version="1.1" id="Layer_1" xmlns="http://www.w3.org/2000/svg" xmlns:xlink="http://www.w3.org/1999/xlink" x="0px" y="0px"
	 width="70px" height="70px" viewBox="0 0 70 70" enable-background="new 0 0 70 70" xml:space="preserve">
	<path opacity="0.5" fill="#26b" d="M64.03,67.5H5.968c-2.125,0-4.107-1.979-5.171-3.821c-1.063-1.843-1.063-4.546,0-6.39L29.828,6.798
		c1.064-1.842,3.045-3.09,5.172-3.09c2.126,0,4.108,1.092,5.171,2.934l29.03,50.257c1.064,1.843,1.064,4.951,0.002,6.794
		C68.138,65.533,66.156,67.5,64.03,67.5z"/>
	<path fill="#26b" d="M31.756,54.585c0-1.954,1.357-3.365,3.203-3.365c1.954,0,3.203,1.411,3.203,3.365
		c0,1.9-1.249,3.366-3.203,3.366C33.06,57.951,31.756,56.485,31.756,54.585z M33.113,46.82l-0.759-26.058h5.211L36.804,46.82H33.113
		z"/>
</svg>
