<?xml version="1.0" encoding="utf-8"?>
<!-- Generator: Adobe Illustrator 16.0.0, SVG Export Plug-In . SVG Version: 6.00 Build 0)  -->
<!DOCTYPE svg PUBLIC "-//W3C//DTD SVG 1.1//EN" "http://www.w3.org/Graphics/SVG/1.1/DTD/svg11.dtd">
<svg version="1.1" id="Layer_1" xmlns="http://www.w3.org/2000/svg" xmlns:xlink="http://www.w3.org/1999/xlink" x="0px" y="0px"
	 width="70px" height="70px" viewBox="0 0 70 70" enable-background="new 0 0 70 70" xml:space="preserve">
<g>
	<path fill="#231F20" d="M64.029,66.5H5.968c-2.125,0-4.107-1.23-5.171-3.072c-1.063-1.844-1.063-4.173,0-6.016L29.828,7.107
		C30.892,5.266,32.873,4.11,35,4.11c2.125,0,4.108,1.139,5.171,2.981l29.031,50.28c1.063,1.843,1.063,4.215,0.001,6.058
		C68.138,65.271,66.156,66.5,64.029,66.5z M35,8.081c-0.71,0-1.37,0.381-1.725,0.995L4.244,59.359c-0.354,0.614-0.354,1.953,0,2.568
		C4.6,62.541,5.261,63.5,5.968,63.5h58.062c0.711,0,1.37-0.959,1.726-1.572c0.354-0.615,0.354-1.665-0.002-2.279L36.724,9.22
		C36.368,8.606,35.708,8.081,35,8.081z"/>
</g>
<g>
	<path fill="#231F20" d="M31.756,55.081c0-1.954,1.357-3.365,3.203-3.365c1.954,0,3.203,1.411,3.203,3.365
		c0,1.901-1.249,3.365-3.203,3.365C33.059,58.446,31.756,56.982,31.756,55.081z M33.113,47.317l-0.76-26.059h5.211l-0.761,26.059
		H33.113z"/>
</g>
</svg>
