<?xml version="1.0" encoding="utf-8"?>
<!-- Generator: Adobe Illustrator 16.0.0, SVG Export Plug-In . SVG Version: 6.00 Build 0)  -->
<!DOCTYPE svg PUBLIC "-//W3C//DTD SVG 1.1//EN" "http://www.w3.org/Graphics/SVG/1.1/DTD/svg11.dtd">
<svg version="1.1" id="Layer_1" xmlns="http://www.w3.org/2000/svg" xmlns:xlink="http://www.w3.org/1999/xlink" x="0px" y="0px"
	 width="70px" height="70px" viewBox="0 0 70 70" enable-background="new 0 0 70 70" xml:space="preserve">
<path fill="#231F20" d="M66.5,15.892c0-8.901-12.799-15.821-30.63-15.821c-17.85,0-32.37,6.652-32.37,15.408
	c0,0.81,0,38.975,0,38.975c0,8.744,14.119,15.594,31.929,15.594c17.795,0,31.071-6.658,31.071-15.492 M62.5,42.084
	c0,5.361-11.183,11.098-27.226,11.098C19.146,53.182,7.5,47.279,7.5,41.98v-4.57c6,4.58,15.964,7.604,27.774,7.604
	c11.696,0,22.226-2.891,27.226-7.371V42.084z M62.5,29.519c0,5.36-11.183,11.1-27.226,11.1C19.146,40.619,7.5,34.713,7.5,29.415
	v-5.884c6,4.558,15.981,7.563,27.774,7.563c11.679,0,22.226-2.891,27.226-7.376V29.519z M35.469,4.396
	c15.764,0,26.749,5.84,26.749,11.082S51.232,26.56,35.469,26.56C19.382,26.56,8.17,20.72,8.17,15.479S19.382,4.396,35.469,4.396z
	 M35.274,65.654C19.146,65.654,7.5,59.75,7.5,54.453v-4.48c6,4.582,15.964,7.604,27.774,7.604c11.696,0,22.226-2.889,27.226-7.369
	v4.348C62.5,59.916,51.317,65.654,35.274,65.654z"/>
</svg>
