<?xml version="1.0" encoding="utf-8"?>
<!-- Generator: Adobe Illustrator 16.0.0, SVG Export Plug-In . SVG Version: 6.00 Build 0)  -->
<!DOCTYPE svg PUBLIC "-//W3C//DTD SVG 1.1//EN" "http://www.w3.org/Graphics/SVG/1.1/DTD/svg11.dtd">
<svg version="1.1" id="Layer_1" xmlns="http://www.w3.org/2000/svg" xmlns:xlink="http://www.w3.org/1999/xlink" x="0px" y="0px"
	 width="70px" height="70px" viewBox="0 0 70 70" enable-background="new 0 0 70 70" xml:space="preserve">
<path opacity="0.5" d="M35.48,0C17.678,0,3.821,6.841,3.821,15.574c0,0.167,0.076,0.331,0.089,0.497
	c7.111,5.235,18.469,8.716,31.19,8.716c13.138,0,24.399-3.656,31.399-9.199c0-0.004,0-0.009,0-0.013C66.5,6.696,53.264,0,35.48,0z"
	/>
<path d="M66.437,30.242c0.018-0.223,0.063-0.439,0.063-0.665V22.12c-7,4.952-19.053,8.001-31.582,8.001
	c-12.367,0-22.418-2.863-31.418-7.551v6.903c0,0.249,0.051,0.49,0.073,0.737C3.53,30.382,3.5,30.559,3.5,30.744v9.924
	c7,5.443,18.954,9.07,31.885,9.07c12.744,0,25.115-3.441,31.115-8.721V30.744C66.5,30.57,66.474,30.404,66.437,30.242z"/>
<path d="M35.273,70C53.021,70,66.5,63.357,66.5,54.549v-8.233c-7,4.831-18.775,7.806-31.115,7.806
	c-12.538,0-22.885-3.149-31.885-8.174v8.496C3.5,63.167,17.51,70,35.273,70z"/>
</svg>
