<?xml version="1.0" encoding="utf-8"?>
<!-- Generator: Adobe Illustrator 16.0.0, SVG Export Plug-In . SVG Version: 6.00 Build 0)  -->
<!DOCTYPE svg PUBLIC "-//W3C//DTD SVG 1.1//EN" "http://www.w3.org/Graphics/SVG/1.1/DTD/svg11.dtd">
<svg version="1.1" id="Layer_1" xmlns="http://www.w3.org/2000/svg" xmlns:xlink="http://www.w3.org/1999/xlink" x="0px" y="0px"
	 width="70px" height="70px" viewBox="0 0 70 70" enable-background="new 0 0 70 70" xml:space="preserve">
<path opacity="0.5" d="M34.117,51.666c0.228,0.099,0.471,0.146,0.715,0.146c0.001,0,0.001,0,0.001,0
	c0.242,0-0.502-0.048-0.275-0.146L64.5,38.522c0,0.008,0,0.016,0,0.022l3.405-1.028c0.66-0.28,1.587-0.924,1.601-1.642
	c0.014-0.717-0.149-1.377-0.799-1.682l-9.624-4.581l-21.985,9.37c-0.736,0.314-1.488,0.475-2.294,0.475
	c-0.813,0-1.586-0.163-2.33-0.481l-21.689-9.294l-9.734,4.54C0.397,34.524-0.012,35.183,0,35.9c0.011,0.719,0.446,1.363,1.105,1.646
	l0.614,0.264c0-0.009-0.001-0.016-0.003-0.023L34.117,51.666z"/>
<path d="M34.833,55.938c-0.813,0-1.6-0.162-2.344-0.48l-21.675-9.285l-9.761,4.553c-0.651,0.303-1.063,0.961-1.051,1.679
	c0.012,0.718,0.444,1.363,1.104,1.646l33.011,14.141c0.228,0.099,0.472,0.146,0.716,0.146c0.242,0,0.485-0.048,0.713-0.146
	l33.345-14.172c0.662-0.28,1.096-0.924,1.109-1.643c0.013-0.717-0.396-1.376-1.047-1.682l-9.771-4.592l-22.024,9.36
	C36.422,55.778,35.639,55.938,34.833,55.938z"/>
<path d="M34.832,35.331C34.833,35.331,34.833,35.331,34.832,35.331c0.243,0,0.486-0.048,0.714-0.146l27.801-11.814l5.546-2.357
	c0.66-0.281,1.094-0.924,1.107-1.643c0.013-0.717-0.396-1.376-1.047-1.682L35.944,2.173c-0.49-0.231-1.055-0.231-1.544-0.002
	L1.053,17.718c-0.651,0.304-1.063,0.961-1.051,1.679c0.012,0.719,0.444,1.363,1.104,1.647l2.129,0.912l30.882,13.229
	C34.344,35.283,34.588,35.331,34.832,35.331z"/>
</svg>
