<?xml version="1.0" encoding="utf-8"?>
<!-- Generator: Adobe Illustrator 16.0.0, SVG Export Plug-In . SVG Version: 6.00 Build 0)  -->
<!DOCTYPE svg PUBLIC "-//W3C//DTD SVG 1.1//EN" "http://www.w3.org/Graphics/SVG/1.1/DTD/svg11.dtd">
<svg version="1.1" id="Layer_1" xmlns="http://www.w3.org/2000/svg" xmlns:xlink="http://www.w3.org/1999/xlink" x="0px" y="0px"
	 width="70px" height="70px" viewBox="0 0 70 70" enable-background="new 0 0 70 70" xml:space="preserve">
<path fill="#231F20" d="M70,35.688c0.014-0.717-0.397-1.376-1.048-1.681L54.2,27.071l14.69-6.244
	c0.661-0.281,1.096-0.924,1.109-1.643c0.014-0.717-0.397-1.376-1.048-1.681L35.942,1.986c-0.489-0.23-1.054-0.23-1.544-0.002
	L1.052,17.531C0.4,17.834-0.011,18.491,0,19.211c0.012,0.717,0.444,1.362,1.104,1.644l14.703,6.299L1.052,34.035
	C0.4,34.338-0.011,34.995,0,35.714c0.012,0.718,0.444,1.362,1.104,1.645l14.703,6.299l-14.755,6.88
	C0.4,50.841-0.011,51.498,0,52.218c0.012,0.717,0.444,1.361,1.104,1.644l33.011,14.143c0.229,0.098,0.473,0.147,0.717,0.147
	c0.243,0,0.485-0.048,0.713-0.145l33.346-14.174c0.661-0.28,1.096-0.924,1.109-1.643c0.014-0.717-0.397-1.376-1.048-1.682
	L54.2,43.573l14.69-6.243C69.552,37.049,69.986,36.405,70,35.688z M35.164,5.646l28.555,13.42L50.703,24.6l0,0l-15.869,6.744
	L22.66,26.127l0,0L6.283,19.112L35.164,5.646z M34.834,64.35L6.283,52.118L20.3,45.583L34.115,51.5
	c0.228,0.099,0.471,0.148,0.716,0.148h0.001c0.243,0,0.485-0.049,0.713-0.146l14.157-6.017l14.015,6.586L34.834,64.35z
	 M50.703,41.103L50.703,41.103l-15.869,6.743L22.66,42.631l0,0L6.283,35.614L20.3,29.08l13.815,5.918
	c0.228,0.098,0.471,0.147,0.716,0.147h0.001c0.243,0,0.485-0.048,0.713-0.145l14.157-6.018l14.017,6.586L50.703,41.103z"/>
</svg>
