<?xml version="1.0" encoding="utf-8"?>
<!-- Generator: Adobe Illustrator 16.0.0, SVG Export Plug-In . SVG Version: 6.00 Build 0)  -->
<!DOCTYPE svg PUBLIC "-//W3C//DTD SVG 1.1//EN" "http://www.w3.org/Graphics/SVG/1.1/DTD/svg11.dtd">
<svg version="1.1" id="Layer_1" xmlns="http://www.w3.org/2000/svg" xmlns:xlink="http://www.w3.org/1999/xlink" x="0px" y="0px"
	 width="70px" height="70px" viewBox="0 0 70 70" enable-background="new 0 0 70 70" xml:space="preserve">
<g>
	<g>
		<path fill="none" d="M36.5,16.059c0-5.28-4.597-9.226-8.533-9.226c-3.904,0-8.467,3.945-8.467,9.226V22.5h17V16.059z"/>
		<path opacity="0.5" d="M29.058,31.5H55.5v-3.452c0-3.171-1.965-5.548-5.136-5.548H40.5v-6.441C40.5,9.103,34.451,3,27.966,3
			C21.518,3,15.5,9.103,15.5,16.059V22.5H6.92c-3.17,0-6.42,2.377-6.42,5.548V56.16c0,3.17,3.25,6.34,6.42,6.34H18.5V39.963
			C18.5,34.803,23.897,31.5,29.058,31.5z M19.5,16.059c0-5.28,4.563-9.226,8.467-9.226c3.937,0,8.533,3.945,8.533,9.226V22.5h-17
			V16.059z"/>
	</g>
</g>
<path fill="#26b" d="M64.005,34.437c3.052,0,5.526,2.475,5.526,5.526v22.17c0,3.053-2.475,5.527-5.526,5.527H27.78
	c-3.052,0-5.527-2.475-5.527-5.527v-22.17c0-3.051,2.475-5.526,5.527-5.526H64.005"/>
<path fill="#FFFFFF" d="M52.5,45.688c0,4.291-3.203,7.916-7.031,7.916c-3.791,0-6.969-3.625-6.969-7.916V43.5h-4v2.188
	c0,6.479,4.998,11.75,10.969,11.75c6.006,0,11.031-5.271,11.031-11.75V43.5h-4V45.688z"/>
</svg>
