<?xml version="1.0" encoding="utf-8"?>
<!-- Generator: Adobe Illustrator 16.0.0, SVG Export Plug-In . SVG Version: 6.00 Build 0)  -->
<!DOCTYPE svg PUBLIC "-//W3C//DTD SVG 1.1//EN" "http://www.w3.org/Graphics/SVG/1.1/DTD/svg11.dtd">
<svg version="1.1" id="Layer_1" xmlns="http://www.w3.org/2000/svg" xmlns:xlink="http://www.w3.org/1999/xlink" x="0px" y="0px"
	 width="70px" height="70px" viewBox="0 0 70 70" enable-background="new 0 0 70 70" xml:space="preserve">
<g>
	<path fill="#231F20" d="M4.5,55.193V27.593c0-1.038,1.235-1.093,2.273-1.093h42.655c1.037,0,1.072,0.055,1.072,1.093V31.5h4v-3.907
		c0-3.112-1.96-5.093-5.072-5.093H39.5v-6.678C39.5,8.992,33.834,3,27.467,3C21.135,3,15.5,8.992,15.5,15.822V22.5H6.773
		C3.66,22.5,0.5,24.48,0.5,27.593v27.601c0,3.113,3.16,6.307,6.273,6.307H19.5v-4H6.773C5.735,57.5,4.5,56.23,4.5,55.193z
		 M19.5,15.822c0-5.185,4.133-9.059,7.967-9.059c3.865,0,8.033,3.874,8.033,9.059V22.5h-16V15.822z"/>
	<path fill="#231F20" d="M69.5,38.926c0-2.996-2.43-5.426-5.426-5.426H28.926c-2.997,0-5.426,2.43-5.426,5.426v22.148
		c0,2.996,2.429,5.426,5.426,5.426h35.148c2.996,0,5.426-2.43,5.426-5.426V38.926z M65.5,60.838c0,0.918-0.744,1.662-1.662,1.662
		H28.162c-0.918,0-1.662-0.744-1.662-1.662V39.162c0-0.918,0.744-1.662,1.662-1.662h35.676c0.918,0,1.662,0.744,1.662,1.662V60.838z
		"/>
	<path fill="#231F20" d="M53.5,44.912c0,4.211-3.273,7.771-7.029,7.771c-3.725,0-6.971-3.561-6.971-7.771V42.5h-4v2.412
		c0,6.359,4.607,11.535,10.47,11.535c5.896,0,10.53-5.176,10.53-11.535V42.5h-3V44.912z"/>
</g>
</svg>
