<?xml version="1.0" encoding="utf-8"?>
<!-- Generator: Adobe Illustrator 16.0.0, SVG Export Plug-In . SVG Version: 6.00 Build 0)  -->
<!DOCTYPE svg PUBLIC "-//W3C//DTD SVG 1.1//EN" "http://www.w3.org/Graphics/SVG/1.1/DTD/svg11.dtd">
<svg version="1.1" id="Layer_1" xmlns="http://www.w3.org/2000/svg" xmlns:xlink="http://www.w3.org/1999/xlink" x="0px" y="0px"
	 width="70px" height="70px" viewBox="0 0 70 70" enable-background="new 0 0 70 70" xml:space="preserve">
<path fill="none" d="M46.822,51.946"/>
<path fill="none" stroke="#221F1F" stroke-width="3" stroke-miterlimit="10" d="M49.11,17.189l-0.807-0.599
	c-3.752-2.668-8.345-4.246-13.304-4.246c-4.957,0-9.545,1.575-13.296,4.24l-0.806,0.601c-5.334,4.148-8.772,10.592-8.772,17.816
	c0,1.844,0.229,3.635,0.648,5.35l0.36,1.292c1.399,4.521,4.193,8.434,7.875,11.265l0.811,0.596c3.729,2.613,8.272,4.151,13.18,4.151
	c4.91,0,9.455-1.54,13.188-4.159l0.808-0.592c3.687-2.836,6.478-6.756,7.877-11.274l0.354-1.292
	c0.418-1.711,0.646-3.498,0.646-5.335C57.875,27.78,54.438,21.343,49.11,17.189z"/>
<path fill="none" stroke="#212120" stroke-width="3" stroke-miterlimit="10" d="M17.483,20.261
	c4.466,4.084,7.318,10.303,7.318,17.269c0,5.354-1.685,10.265-4.488,14.105"/>
<path fill="none" stroke="#212120" stroke-width="3" stroke-miterlimit="10" d="M52.318,20.261C47.853,24.345,45,30.563,45,37.529
	c0,5.505,1.78,10.541,4.729,14.429"/>
<path fill="none" stroke="#212120" stroke-width="3" stroke-miterlimit="10" d="M57.159,40.781
	c-5.215-5.702-13.157-9.346-22.053-9.346c-8.784,0-16.639,3.553-21.856,9.132"/>
</svg>
