<?xml version="1.0" encoding="utf-8"?>
<!-- Generator: Adobe Illustrator 16.0.0, SVG Export Plug-In . SVG Version: 6.00 Build 0)  -->
<!DOCTYPE svg PUBLIC "-//W3C//DTD SVG 1.1//EN" "http://www.w3.org/Graphics/SVG/1.1/DTD/svg11.dtd">
<svg version="1.1" id="Layer_1" xmlns="http://www.w3.org/2000/svg" xmlns:xlink="http://www.w3.org/1999/xlink" x="0px" y="0px"
	 width="70px" height="70px" viewBox="0 0 70 70" enable-background="new 0 0 70 70" xml:space="preserve">
<rect x="33.727" y="22.807" width="2.487" height="2.173"/>
<rect x="33.727" y="26.547" width="2.487" height="1.983"/>
<rect x="33.727" y="30.268" width="2.487" height="1.985"/>
<polyline fill="none" stroke-width="3" stroke-linecap="round" stroke-linejoin="round" stroke-miterlimit="10" points="
	46.394,16.046 46.49,15.924 42.529,11.612 34.969,17.433 27.41,11.612 23.451,15.924 "/>
<polyline fill="none" stroke-width="2" stroke-linecap="round" stroke-linejoin="round" stroke-miterlimit="10" points="
	23.451,15.924 29.182,24.301 34.969,17.433 40.759,24.301 46.394,16.046 "/>
<path fill="none" stroke-width="2.8107" stroke-linecap="round" stroke-linejoin="round" stroke-miterlimit="10" d="
	M20.975,56.833"/>
<path fill="none" stroke-width="3" stroke-linecap="round" stroke-linejoin="round" stroke-miterlimit="10" d="
	M23.548,16.046h-1.905c-2.98,0-5.739,1.494-7.372,3.984L5.045,30.952l12.116,10.234l0.077,0.066l1.988-2.354l0.021,19.386v0.103
	h31.52l0.01-19.486l1.985,2.352l12.114-10.234l0.079-0.066l-9.218-10.91c-1.641-2.502-4.398-3.996-7.379-3.996h-1.965"/>
<line fill="none" stroke-width="2" stroke-linecap="round" stroke-linejoin="round" stroke-miterlimit="10" x1="27.648" y1="11.612" x2="42.365" y2="11.612"/>
</svg>
