<?xml version="1.0" encoding="utf-8"?>
<!-- Generator: Adobe Illustrator 16.0.0, SVG Export Plug-In . SVG Version: 6.00 Build 0)  -->
<!DOCTYPE svg PUBLIC "-//W3C//DTD SVG 1.1//EN" "http://www.w3.org/Graphics/SVG/1.1/DTD/svg11.dtd">
<svg version="1.1" id="Layer_1" xmlns="http://www.w3.org/2000/svg" xmlns:xlink="http://www.w3.org/1999/xlink" x="0px" y="0px"
	 width="70px" height="70px" viewBox="0 0 70 70" enable-background="new 0 0 70 70" xml:space="preserve">
<path fill="none" stroke="#212120" stroke-width="3" stroke-miterlimit="10" d="M55.087,43.938
	c-0.623-3.746-2.375-7.662-3.609-11.329c-0.689-12.332-6.22-19.873-6.968-20.725l-0.378-0.294c-0.393-0.189-2.431-1.139-4.042-1.139
	c-0.504,0-1.989,1.834-2.195,1.761l-0.505-3.15l-0.026-0.096l-0.053-0.058c-0.15-0.159-0.312-0.317-0.522-0.51l-0.069-0.062h-3.48
	l-0.119,0.021l-0.072,0.066c-0.184,0.168-0.343,0.328-0.512,0.506l-0.048,0.056l-0.524,3.274c-0.239,0.091-1.681-1.673-2.262-1.803
	c-0.272-0.061-0.554-0.092-0.838-0.092c-1.989,0-3.584,1.47-3.669,1.551c-0.75,0.857-6.154,6.349-6.571,19.202
	c-1.296,3.123-3.14,9.366-3.709,12.809c-1.235,6.99-0.39,12.115,2.59,15.666c0.271,0.322,0.596,0.664,1.01,1.051l1.201,1.018h30.558
	l0.779-0.637l0.487-0.434c0.381-0.359,0.683-0.676,0.953-0.998C55.474,56.041,56.322,50.918,55.087,43.938z M44.248,21.191
	 M25.903,21.191 M19.891,33.961"/>
<line fill="none" stroke="#21201F" stroke-width="1.541" stroke-miterlimit="10" x1="45.364" y1="53.379" x2="24.695" y2="53.379"/>
<line fill="none" stroke="#21201F" stroke-width="1.541" stroke-miterlimit="10" x1="40.758" y1="51.98" x2="40.758" y2="55.178"/>
<line fill="none" stroke="#21201F" stroke-width="2.3116" stroke-miterlimit="10" x1="26.425" y1="24.026" x2="26.425" y2="21.191"/>
<line fill="none" stroke="#21201F" stroke-width="2.3116" stroke-miterlimit="10" x1="43.611" y1="21.191" x2="43.611" y2="24.568"/>
<path fill="none" stroke="#212120" stroke-width="3" stroke-miterlimit="10" d="M49.823,33.113"/>
<path fill="none" stroke="#21201F" stroke-width="2.3116" stroke-miterlimit="10" d="M47.98,46.525c0,0,1.408,1.266,1.903,2.033"/>
<path fill="none" stroke="#21201F" stroke-width="2.3116" stroke-miterlimit="10" d="M26.425,23.798"/>
<path fill="none" stroke="#21201F" stroke-width="2.3116" stroke-miterlimit="10" d="M43.611,24.409"/>
<path fill="none" stroke="#21201F" stroke-width="1.541" stroke-miterlimit="10" d="M26.438,23.778c0,1.855,3.85,3.358,8.599,3.358
	c4.749,0,8.599-1.503,8.599-3.358"/>
<rect x="34.475" y="24.52" fill="#21201F" width="1.573" height="1.033"/>
<line fill="none" stroke="#212120" stroke-width="2" stroke-miterlimit="10" x1="25.903" y1="21.191" x2="44.248" y2="21.191"/>
<path fill="none" stroke="#212120" stroke-width="2" stroke-miterlimit="10" d="M43.611,24.409v3.865
	c0,2.839-2.309,5.146-5.146,5.146h-6.871c-2.838,0-5.146-2.31-5.147-5.169l-0.022-4.452"/>
<path fill="none" stroke="#212120" stroke-width="2" stroke-miterlimit="10" d="M45.291,22.959
	c1.683,2.896,3.241,6.384,4.532,10.153c0.199,4.381-0.421,8.891-1.843,13.413c-1.784-1.438-4.004-2.225-6.297-2.225H28.313
	c-2.391,0-4.685,0.852-6.501,2.4c-1.363-4.275-2.01-8.561-1.92-12.74c1.154-3.514,2.557-6.842,4.084-9.688
	c1.203-2.395,3.617-5.534,3.617-5.534c2.453-2.996,4.946-4.576,7.228-4.576l0.205,0.002l0.149-0.002c2.288,0,4.783,1.58,7.236,4.576
	C42.409,18.739,44.551,21.631,45.291,22.959z"/>
<path fill="none" stroke="#212120" stroke-width="2" stroke-miterlimit="10" d="M51.739,60.4v-6.041c0-2.09-0.641-4.092-1.855-5.801
	"/>
<path fill="none" stroke="#212120" stroke-width="2" stroke-miterlimit="10" d="M21.811,46.701c0,0-0.993,0.932-1.872,2.111
	c-1.102,1.654-1.682,3.57-1.682,5.547v6.039"/>
</svg>
