<?xml version="1.0" encoding="utf-8"?>
<!-- Generator: Adobe Illustrator 16.0.0, SVG Export Plug-In . SVG Version: 6.00 Build 0)  -->
<!DOCTYPE svg PUBLIC "-//W3C//DTD SVG 1.1//EN" "http://www.w3.org/Graphics/SVG/1.1/DTD/svg11.dtd">
<svg version="1.1" id="Layer_1" xmlns="http://www.w3.org/2000/svg" xmlns:xlink="http://www.w3.org/1999/xlink" x="0px" y="0px"
	 width="70px" height="70px" viewBox="0 0 70 70" enable-background="new 0 0 70 70" xml:space="preserve">
<g>
	<path fill="none" stroke="#000000" stroke-width="3" stroke-miterlimit="10" d="M42.213,56.107V49.44 M27.786,49.44v6.667"/>
	<path fill="none" stroke="#000000" stroke-width="2" stroke-miterlimit="10" d="M35,42.771c-0.996,0-1.801,0.807-1.801,1.8
		s0.805,1.8,1.801,1.8c0.99,0,1.8-0.806,1.8-1.8S35.991,42.771,35,42.771z"/>
</g>
<line fill="none" stroke="#000000" stroke-width="2" stroke-miterlimit="10" x1="9.658" y1="40.145" x2="60.342" y2="40.145"/>
<g>
	<path fill="none" stroke="#000000" stroke-width="3" stroke-miterlimit="10" d="M55.09,49.44c2.896,0,5.252-2.354,5.252-5.25
		V19.146c0-2.896-2.354-5.253-5.252-5.253H14.91c-2.897,0-5.252,2.356-5.252,5.253V44.19c0,2.896,2.354,5.25,5.252,5.25H55.09z"/>
</g>
<line fill="none" stroke="#000000" stroke-width="4" stroke-miterlimit="10" x1="49.539" y1="56.107" x2="20.461" y2="56.107"/>
</svg>
